# xmcd
#
# Track frame offsets:
#	150
#	24788
#	50064
#	70577
#	99005
#	119054
#	140694
#
# Disc length: 2021 seconds
#
# Revision: 1
# Processed by: cddbd v1.5.2PL0 Copyright (c) Steve Scherf et al.
# Submitted via: audiograbber 1.83.01
#
DISCID=5907e307
DTITLE=Justin Conn - Open Book
DYEAR=2002
DGENRE=Blues
TTITLE0=Trouble
TTITLE1=Claire
TTITLE2=Open Book
TTITLE3=No Big Thing
TTITLE4=May
TTITLE5=You Almost
TTITLE6=Heavy Heart, part 2
EXTD=
EXTT0=
EXTT1=
EXTT2=
EXTT3=
EXTT4=
EXTT5=
EXTT6=
PLAYORDER=
